<?xml version="1.0" encoding="UTF-8"?>
<svg version="1.1" xmlns="http://www.w3.org/2000/svg" width="500" height="500">
<path d="M0 0 C0.79318634 -0.00067474 1.58637268 -0.00134949 2.40359497 -0.00204468 C59.7653097 0.07507862 113.86817933 21.40567963 156.8125 59.25 C157.73675781 60.04019531 158.66101563 60.83039063 159.61328125 61.64453125 C164.29542517 65.68588409 164.29542517 65.68588409 165.8125 67.25 C165.8125 67.91 165.8125 68.57 165.8125 69.25 C166.8025 69.58 167.7925 69.91 168.8125 70.25 C170.35546875 71.78125 170.35546875 71.78125 172 73.75 C174.46350468 76.66609009 176.97185631 79.50907244 179.5625 82.3125 C189.81793425 93.89185351 198.06910779 106.90539226 205.8125 120.25 C206.18503906 120.88905273 206.55757813 121.52810547 206.94140625 122.18652344 C213.02618728 132.74507797 217.56532851 143.84405907 221.8125 155.25 C222.06128906 155.91499512 222.31007813 156.57999023 222.56640625 157.26513672 C243.53824414 214.20367659 238.32203404 279.0965429 213.42382812 333.81494141 C202.427206 357.21718523 187.53891975 379.3299811 168.8125 397.25 C166.38899338 399.65393064 163.9851167 402.06904582 161.62890625 404.5390625 C131.43721041 435.82958955 90.01554441 454.63163035 48.125 464 C47.24803467 464.19875732 46.37106934 464.39751465 45.4675293 464.60229492 C30.97465103 467.69777098 16.52776896 468.63458856 1.75 468.5625 C0.94679321 468.56034485 0.14358643 468.5581897 -0.68395996 468.55596924 C-64.4867384 468.28293009 -122.16547108 442.40284176 -167.5625 398.125 C-172.46070615 393.11325927 -176.83549221 387.73559088 -181.1875 382.25 C-181.84363281 381.46109375 -182.49976563 380.6721875 -183.17578125 379.859375 C-192.98689677 367.98379629 -201.03267129 354.86339272 -208.1875 341.25 C-208.5572998 340.54987793 -208.92709961 339.84975586 -209.30810547 339.12841797 C-237.04678223 285.80517427 -241.40023252 221.03619455 -223.38769531 163.95458984 C-219.69598433 152.72815728 -215.37819527 141.86520564 -210.1875 131.25 C-209.67582275 130.1978833 -209.67582275 130.1978833 -209.15380859 129.12451172 C-182.64997155 75.31443921 -134.04000604 32.5642823 -77.4375 12.875 C-51.97282394 4.28080608 -26.88126511 0.0206507 0 0 Z " fill="#F9AE1D" transform="translate(250.1875,19.75)"/>
<path d="M0 0 C3.65627146 1.61153197 6.5058155 3.89775848 9.625 6.375 C17.59277288 12.43678028 24.16937884 14.95019333 34.125 15.9375 C47.13775212 17.22808059 59.79577782 19.99615038 69 30 C76.58066207 39.79474326 80.53063011 49.6555719 81 62 C81.66 62 82.32 62 83 62 C83.13277344 61.04996094 83.26554688 60.09992188 83.40234375 59.12109375 C84.07291738 54.42707834 84.81823779 49.74529815 85.5625 45.0625 C85.70107422 44.18787109 85.83964844 43.31324219 85.98242188 42.41210938 C86.32114261 40.27466474 86.66050532 38.13732185 87 36 C95.19751922 40.19698696 101.0158778 44.41048028 105.05078125 52.92578125 C107.8246438 61.9094431 107.16959322 73.56319767 103 82 C97.11404498 91.59343014 90.03593251 99.79618314 80 105 C75.80117638 107.10929241 75.80117638 107.10929241 73.171875 110.83203125 C72.70340627 112.34365999 72.25855074 113.86272219 71.83203125 115.38671875 C70.53579725 119.45798891 68.54206273 123.12752966 66.58203125 126.9140625 C65.58047109 128.86772307 64.61452279 130.84040978 63.69921875 132.8359375 C57.43580456 146.32352558 47.04120976 162.86962748 35.24609375 172.171875 C31.9144206 176.36688606 32.4680374 179.830791 33 185 C33.45567158 188.7774904 34.06506279 192.50771211 34.75 196.25 C34.93046875 197.25490479 35.1109375 198.25980957 35.296875 199.29516602 C37.27099088 209.95316403 39.45552267 220.55735771 45 230 C45.51175781 230.88042969 46.02351562 231.76085937 46.55078125 232.66796875 C48.94496365 237.07699932 48.94496365 237.07699932 52 241 C54.32817964 241.36760731 56.6618385 241.70241581 59 242 C59 242.33 59 242.66 59 243 C57.6696875 243.35384766 57.6696875 243.35384766 56.3125 243.71484375 C52.61368784 245.14987819 50.79301393 246.77385015 48 249.5625 C28.28342001 268.10197074 1.86136506 277.81244946 -25.0859375 277.1875 C-45.53825843 276.2077481 -65.4326109 269.48247092 -81 256 C-81.886875 255.34 -82.77375 254.68 -83.6875 254 C-86.81792411 251.29260617 -89.38537984 248.19864184 -92 245 C-90.6118113 242.05836204 -88.9942122 239.47104274 -87.125 236.8125 C-84.14966795 232.39655706 -81.97333172 227.9333293 -80 223 C-79.73445313 222.37738281 -79.46890625 221.75476563 -79.1953125 221.11328125 C-74.57562841 209.75457347 -72.84251462 197.07331945 -71 185 C-70.8453125 184.08734375 -70.690625 183.1746875 -70.53125 182.234375 C-70.19029932 178.75180736 -70.42278709 176.83218772 -72.44140625 173.921875 C-73.79087802 172.40610469 -75.18155579 170.92646409 -76.6015625 169.4765625 C-83.9007916 161.9395735 -89.70615534 153.13807225 -95.3125 144.3125 C-95.80395508 143.54115723 -96.29541016 142.76981445 -96.80175781 141.97509766 C-106 127.25228241 -106 127.25228241 -106 122 C-106.66 122 -107.32 122 -108 122 C-108.24492187 121.04738281 -108.48984375 120.09476562 -108.7421875 119.11328125 C-110.60789408 111.95977655 -110.60789408 111.95977655 -115.1015625 106.4140625 C-116.76077106 105.73848898 -118.42961496 105.08628115 -120.10546875 104.453125 C-128.5551881 100.21116063 -137.06084301 90.54383366 -141 82 C-141.31324219 81.37738281 -141.62648437 80.75476563 -141.94921875 80.11328125 C-145.4140597 71.88232423 -145.65880167 59.64077406 -142.75 51.25 C-141.07505691 48.1393914 -139.45956509 45.5389059 -137 43 C-136.34 43 -135.68 43 -135 43 C-135 42.34 -135 41.68 -135 41 C-133.02 40.01 -131.04 39.02 -129 38 C-126.54052631 45.72977447 -124.79131556 53.8613069 -125 62 C-124.34 62 -123.68 62 -123 62 C-122.9175 61.05125 -122.835 60.1025 -122.75 59.125 C-121.10475663 47.96889767 -114.9216244 38.77215774 -106.41015625 31.60546875 C-96.46756606 24.98244676 -85.65841756 23.87305303 -74.08203125 23.7890625 C-71.91861233 23.7609859 -69.75520097 23.73232138 -67.59179688 23.703125 C-64.20630167 23.66198481 -60.82094648 23.62506595 -57.43530273 23.59863281 C-54.15058787 23.57081047 -50.86649959 23.52493639 -47.58203125 23.4765625 C-46.08770317 23.4716832 -46.08770317 23.4716832 -44.56318665 23.46670532 C-31.68565522 23.24467077 -17.857643 19.25926141 -8.1796875 10.42578125 C-5.15982037 7.10004333 -2.49110362 3.73665542 0 0 Z " fill="#E3BCAB" transform="translate(272,153)"/>
<path d="M0 0 C2.5625 2.25 2.5625 2.25 4 4 C4 4.66 4 5.32 4 6 C4.4640625 5.71125 4.928125 5.4225 5.40625 5.125 C13.0564202 1.01446079 20.57238065 1.62773706 29 2 C29 2.66 29 3.32 29 4 C30.258125 4.20625 31.51625 4.4125 32.8125 4.625 C49.60094829 8.43458529 62.32902629 21.82285262 71.1875 35.875 C78.67993156 48.9408207 81.39895114 61.64236269 81.375 76.625 C81.37338867 77.72255615 81.37177734 78.8201123 81.37011719 79.95092773 C81.01841178 104.8202926 78.41357492 133.28312094 71 157 C70.34 157 69.68 157 69 157 C68.86464844 156.15179688 68.72929687 155.30359375 68.58984375 154.4296875 C66.22088403 141.52098485 61.33688194 127.68892808 50.0625 119.875 C41.60613696 114.55320316 32.0264062 112.97882773 22.25 112 C10.78071 110.81606509 3.59969289 107.12007272 -5.3359375 100.0234375 C-7.53029971 98.35675183 -9.49330582 97.10484625 -12 96 C-12.42410156 96.58007812 -12.84820312 97.16015625 -13.28515625 97.7578125 C-22.26873834 109.7227592 -33.02642742 116.54832175 -48 119 C-51.74965498 119.28403438 -55.48675936 119.32379173 -59.24609375 119.34375 C-60.29724869 119.3583728 -61.34840363 119.37299561 -62.43141174 119.38806152 C-65.76673648 119.43423097 -69.10200546 119.46861279 -72.4375 119.5 C-76.83224199 119.54142075 -81.22658573 119.59517281 -85.62109375 119.65625 C-87.10904701 119.66416565 -87.10904701 119.66416565 -88.62705994 119.67224121 C-101.19503295 119.84947887 -113.32129209 122.41411702 -122.875 131.1875 C-129.5338735 138.57722547 -132.88670728 147.41603216 -135 157 C-135.66 157 -136.32 157 -137 157 C-137.6959106 152.87438126 -138.38958896 148.74839492 -139.08129883 144.62207031 C-139.31637894 143.22157935 -139.55204382 141.82118641 -139.78833008 140.42089844 C-140.12999904 138.3954444 -140.4694866 136.36963432 -140.80859375 134.34375 C-141.11494751 132.52133789 -141.11494751 132.52133789 -141.42749023 130.66210938 C-142.57988918 123.29068754 -143.16825245 116.24327724 -143.203125 108.7890625 C-143.20882507 107.82205414 -143.21452515 106.85504578 -143.22039795 105.85873413 C-143.22980463 103.81647824 -143.2363646 101.77420748 -143.24023438 99.73193359 C-143.24986277 96.6686608 -143.28089606 93.60608235 -143.3125 90.54296875 C-143.39745574 74.96806574 -142.18447866 59.99084246 -137.1875 45.125 C-136.79739746 43.94043213 -136.79739746 43.94043213 -136.39941406 42.73193359 C-129.20253275 21.5015678 -115.95050998 5.49315762 -96 -5 C-67.03607397 -17.39476214 -26.17999333 -20.48133099 0 0 Z " fill="#723F18" transform="translate(284,58)"/>
<path d="M0 0 C1.11843292 0.00989456 1.11843292 0.00989456 2.25946045 0.01998901 C7.4453865 0.06723724 12.62831883 0.17187776 17.8125 0.3125 C19.64143799 0.36035645 19.64143799 0.36035645 21.50732422 0.40917969 C24.65569872 0.51612114 27.79357282 0.67868523 30.9375 0.875 C31.8349292 0.91133545 32.7323584 0.9476709 33.65698242 0.98510742 C40.54842675 1.54519884 44.11629325 4.39504234 48.8125 9.3125 C50.0809375 10.5809375 50.0809375 10.5809375 51.375 11.875 C52.179375 12.679375 52.98375 13.48375 53.8125 14.3125 C65.3162488 25.7505131 81.98753588 32.71527306 97.8125 35.3125 C98.46734375 35.42335938 99.1221875 35.53421875 99.796875 35.6484375 C125.6884414 39.24989598 152.98046112 32.39227691 174.0625 16.9375 C176.97982864 14.70750009 179.59446696 12.55008083 182.078125 9.84375 C190.34326902 0.94282567 200.36097661 0.67595465 211.84570312 0.23431396 C217.2925298 0.05249865 222.73797173 -0.02345249 228.1875 -0.0625 C228.95423035 -0.07080841 229.72096069 -0.07911682 230.51092529 -0.087677 C242.98420706 -0.18619502 255.49483303 0.35768276 266.6875 6.5 C267.67492187 7.02980469 268.66234375 7.55960937 269.6796875 8.10546875 C270.38351562 8.50378906 271.08734375 8.90210938 271.8125 9.3125 C268.26023967 18.77968684 261.77545304 26.1274432 254.8125 33.3125 C254.03519531 34.11558594 253.25789063 34.91867187 252.45703125 35.74609375 C234.71947835 52.93364501 209.95622867 64.41061995 186.8125 72.3125 C186.01457031 72.59222656 185.21664062 72.87195313 184.39453125 73.16015625 C182.20927428 73.90863497 180.01441957 74.61482219 177.8125 75.3125 C176.78769531 75.66248047 176.78769531 75.66248047 175.7421875 76.01953125 C170.02215179 77.8830272 164.19725656 79.15939342 158.3125 80.375 C157.16720825 80.61851196 157.16720825 80.61851196 155.9987793 80.86694336 C141.09495249 83.84589321 126.16249089 84.66617679 111 84.5625 C110.17177734 84.55906586 109.34355469 84.55563171 108.49023438 84.55209351 C59.52430088 84.31473218 14.29089093 70.58697747 -21.15625 35.41015625 C-28.27440306 28.09538246 -36.76989711 18.71464012 -38.1875 8.3125 C-36.39875226 7.53491722 -34.60629603 6.76586505 -32.8125 6 C-31.81476563 5.57074219 -30.81703125 5.14148438 -29.7890625 4.69921875 C-28.60054687 4.24160156 -27.41203125 3.78398437 -26.1875 3.3125 C-25.50228271 3.03978271 -24.81706543 2.76706543 -24.11108398 2.48608398 C-16.21114296 -0.30588636 -8.26546197 -0.11201573 0 0 Z " fill="#060708" transform="translate(136.1875,392.6875)"/>
<path d="M0 0 C0 60.72 0 121.44 0 184 C-17.55498351 184 -30.00673135 176.35735784 -43 165 C-44.32064453 163.86304688 -44.32064453 163.86304688 -45.66796875 162.703125 C-50.8890478 158.12184535 -55.63118169 153.39787615 -60 148 C-60.73605469 147.10152344 -61.47210938 146.20304688 -62.23046875 145.27734375 C-67.32862566 138.86614802 -71.9218492 132.22782599 -76.3125 125.3125 C-76.80387451 124.54123779 -77.29524902 123.76997559 -77.80151367 122.9753418 C-87 108.25307455 -87 108.25307455 -87 103 C-87.66 103 -88.32 103 -89 103 C-89.24492187 102.04738281 -89.48984375 101.09476562 -89.7421875 100.11328125 C-91.60789408 92.95977655 -91.60789408 92.95977655 -96.1015625 87.4140625 C-97.76077106 86.73848898 -99.42961496 86.08628115 -101.10546875 85.453125 C-109.5551881 81.21116063 -118.06084301 71.54383366 -122 63 C-122.31324219 62.37738281 -122.62648437 61.75476563 -122.94921875 61.11328125 C-126.4140597 52.88232423 -126.65880167 40.64077406 -123.75 32.25 C-122.07505691 29.1393914 -120.45956509 26.5389059 -118 24 C-117.34 24 -116.68 24 -116 24 C-116 23.34 -116 22.68 -116 22 C-114.02 21.01 -112.04 20.02 -110 19 C-107.54052631 26.72977447 -105.79131556 34.8613069 -106 43 C-105.34 43 -104.68 43 -104 43 C-103.9175 42.05125 -103.835 41.1025 -103.75 40.125 C-102.10475663 28.96889767 -95.9216244 19.77215774 -87.41015625 12.60546875 C-77.46756606 5.98244676 -66.65841756 4.87305303 -55.08203125 4.7890625 C-52.91861233 4.7609859 -50.75520097 4.73232138 -48.59179688 4.703125 C-45.20630167 4.66198481 -41.82094648 4.62506595 -38.43530273 4.59863281 C-35.15058787 4.57081047 -31.86649959 4.52493639 -28.58203125 4.4765625 C-27.08770317 4.4716832 -27.08770317 4.4716832 -25.56318665 4.46670532 C-16.71152655 4.31408489 -8.511357 0 0 0 Z " fill="#F2C7B6" transform="translate(253,172)"/>
<path d="M0 0 C0.10546143 0.57854736 0.21092285 1.15709473 0.31958008 1.75317383 C4.42062305 28.31219906 4.42062305 28.31219906 18 51 C20.32817964 51.36760731 22.6618385 51.70241581 25 52 C25 52.33 25 52.66 25 53 C24.113125 53.23589844 23.22625 53.47179687 22.3125 53.71484375 C18.61368784 55.14987819 16.79301393 56.77385015 14 59.5625 C-5.71657999 78.10197074 -32.13863494 87.81244946 -59.0859375 87.1875 C-79.53825843 86.2077481 -99.4326109 79.48247092 -115 66 C-115.886875 65.34 -116.77375 64.68 -117.6875 64 C-120.81792411 61.29260617 -123.38537984 58.19864184 -126 55 C-124.44805246 51.67240077 -122.69378051 49.51419515 -120 47 C-119.65710938 47.47308594 -119.31421875 47.94617188 -118.9609375 48.43359375 C-107.82605365 62.50304058 -90.54852263 68.03544321 -74 73 C-67.07 73.66 -60.14 74.32 -53 75 C-53 60.15 -53 45.3 -53 30 C-55.97 29.67 -58.94 29.34 -62 29 C-62 28.67 -62 28.34 -62 28 C-61.10539062 28.02320313 -60.21078125 28.04640625 -59.2890625 28.0703125 C-35.66181957 28.42295792 -19.81355655 17.46719391 -2.86328125 1.65234375 C-1 0 -1 0 0 0 Z " fill="#E4BCAB" transform="translate(306,343)"/>
<path d="M0 0 C0.66 0 1.32 0 2 0 C2.33 0.99 2.66 1.98 3 3 C0.29817708 5.70182292 -2.40364583 8.40364583 -5.10546875 11.10546875 C-5.83213745 11.8325 -5.83213745 11.8325 -6.57348633 12.57421875 C-7.90923934 13.90928594 -9.24749808 15.24184477 -10.5859375 16.57421875 C-12.13438081 18.13017878 -13.66841098 19.70069559 -15.18359375 21.2890625 C-45.37528959 52.57958955 -86.79695559 71.38163035 -128.6875 80.75 C-129.56446533 80.94875732 -130.44143066 81.14751465 -131.3449707 81.35229492 C-145.83784897 84.44777098 -160.28473104 85.38458856 -175.0625 85.3125 C-175.86570679 85.31034485 -176.66891357 85.3081897 -177.49645996 85.30596924 C-221.19617173 85.11895964 -265.43025529 73.49681555 -302 49 C-299.31633121 47.6581656 -297.84719317 48.26995047 -295 49 C-294.67 49.33 -294.34 49.66 -294 50 C-289.96839809 50.26293056 -288.44107266 50.29404844 -285 48 C-285.020625 48.969375 -285.04125 49.93875 -285.0625 50.9375 C-285.35618499 53.87465895 -285.35618499 53.87465895 -284 55 C-283.01 55.66 -282.02 56.32 -281 57 C-280.34 56.01 -279.68 55.02 -279 54 C-279.99 54 -280.98 54 -282 54 C-280 52 -280 52 -277.2734375 51.65625 C-273.26725507 52.07694696 -271.06601697 53.41453517 -267.625 55.5 C-253.30527077 63.66718096 -236.29312902 68.73801027 -220 71 C-219.32227539 71.10006348 -218.64455078 71.20012695 -217.94628906 71.30322266 C-191.65520284 75.0280865 -163.10395532 74.70718983 -137 70 C-136.13375 69.8448291 -135.2675 69.6896582 -134.375 69.52978516 C-121.38605137 67.13103542 -109.00139748 63.91685484 -96.97509766 58.37133789 C-94.04833026 57.02227729 -91.11023841 55.70157469 -88.16796875 54.38671875 C-69.34008261 45.91673382 -52.58284428 37.02312286 -37.21875 22.99609375 C-34.53189189 20.57886753 -32.25460673 18.5894591 -29 17 C-26.125 17.75 -26.125 17.75 -24 19 C-23.38125 18.34 -22.7625 17.68 -22.125 17 C-20 15 -20 15 -18 15 C-17.67 14.01 -17.34 13.02 -17 12 C-14.55805756 10.39829582 -12.02111084 9.06957225 -9.4453125 7.6953125 C-6.67830616 5.77697264 -5.69387123 3.85538294 -4 1 C-3.01 1 -2.02 1 -1 1 C-0.67 0.67 -0.34 0.34 0 0 Z " fill="#F5AD23" transform="translate(427,403)"/>
<path d="M0 0 C0.86625 0.763125 1.7325 1.52625 2.625 2.3125 C18.3264615 15.67611813 32.49228208 25.44272935 53 30 C53 44.85 53 59.7 53 75 C27.93118483 75 6.68563377 68.00911423 -12.18359375 51.39453125 C-14 49 -14 49 -13.8984375 46.42578125 C-13.10846153 44.29284613 -12.28626376 42.36240537 -11.1875 40.375 C-4.67180883 27.74494646 -2.13359057 13.9310914 0 0 Z " fill="#F2C7B6" transform="translate(200,343)"/>
<path d="M0 0 C0.680625 0.804375 1.36125 1.60875 2.0625 2.4375 C5.48477302 5.42288711 7.5428126 5.73781251 12 6 C12 6.33 12 6.66 12 7 C10.6696875 7.35384766 10.6696875 7.35384766 9.3125 7.71484375 C5.61368784 9.14987819 3.79301393 10.77385015 1 13.5625 C-18.71657999 32.10197074 -45.13863494 41.81244946 -72.0859375 41.1875 C-92.53825843 40.2077481 -112.4326109 33.48247092 -128 20 C-128.886875 19.34 -129.77375 18.68 -130.6875 18 C-133.81792411 15.29260617 -136.38537984 12.19864184 -139 9 C-137.44805246 5.67240077 -135.69378051 3.51419515 -133 1 C-132.48566406 1.70962891 -132.48566406 1.70962891 -131.9609375 2.43359375 C-120.84005649 16.48534734 -100.12130275 25.37548857 -82.625 27.6875 C-77.08281757 28.16226738 -71.55689882 28.14484807 -66 28 C-64.80890625 27.97164063 -63.6178125 27.94328125 -62.390625 27.9140625 C-53.41892107 27.52317913 -45.47994362 25.9267062 -37 23 C-35.7728125 22.5771875 -34.545625 22.154375 -33.28125 21.71875 C-22.6414276 17.84984871 -5.27820868 10.55641737 0 0 Z " fill="#C09F92" transform="translate(319,389)"/>
<path d="M0 0 C3.57186418 2.6098148 7.10502304 5.22615845 10.453125 8.12109375 C23.72301695 19.5832609 38.19171558 27.18423974 56 26 C69.68654351 24.93994069 85.35423277 14.92699085 94.69921875 5.23828125 C96 4 96 4 98 4 C98 3.34 98 2.68 98 2 C99.32 1.34 100.64 0.68 102 0 C103.15309602 4.81628521 103.66713943 9.0722656 103 14 C99.78470859 18.68393015 95.59133501 21.77762997 91 25 C90.37834961 25.44891602 89.75669922 25.89783203 89.11621094 26.36035156 C73.17579439 37.79071689 59.88091231 43.6774294 40 41 C26.44452354 38.05083998 14.14194672 28.03705171 4 19 C3.06929687 18.23816406 2.13859375 17.47632813 1.1796875 16.69140625 C-1 14 -1 14 -1.26953125 10.44921875 C-1.11871094 9.20785156 -0.96789062 7.96648437 -0.8125 6.6875 C-0.67457031 5.43324219 -0.53664062 4.17898438 -0.39453125 2.88671875 C-0.26433594 1.93410156 -0.13414062 0.98148437 0 0 Z " fill="#C3A093" transform="translate(202,330)"/>
<path d="M0 0 C8.19751922 4.19698696 14.0158778 8.41048028 18.05078125 16.92578125 C20.8246438 25.9094431 20.16959322 37.56319767 16 46 C10.14132111 55.54897319 3.04672915 63.88185496 -7 69 C-7.928125 69.5775 -8.85625 70.155 -9.8125 70.75 C-12 72 -12 72 -14 72 C-12.97682532 66.8841266 -11.72362852 62.05149047 -10 57.125 C-7.32708201 49.25529349 -6.05430664 41.72788832 -5.625 33.4375 C-5.23507828 26.88825923 -3.99830925 20.74854929 -2.45947266 14.39233398 C-1.30415754 9.59869489 -0.53141221 4.90449186 0 0 Z " fill="#C29F91" transform="translate(359,189)"/>
<path d="M0 0 C0.66 0.33 1.32 0.66 2 1 C2.64604768 3.92795923 3.17338856 6.79148424 3.625 9.75 C3.7590625 10.56210938 3.893125 11.37421875 4.03125 12.2109375 C4.66380145 16.17406598 5.18008276 19.97269458 5 24 C5.66 24 6.32 24 7 24 C7.33 21.69 7.66 19.38 8 17 C8.33 17 8.66 17 9 17 C9.03963867 17.61818604 9.07927734 18.23637207 9.12011719 18.87329102 C10.14472126 34.12206019 12.36267838 47.65214229 17.40625 62.125 C18.2253674 64.71168654 18.65555015 67.31329117 19 70 C7.3846832 67.58014233 -2.54030479 57.5910988 -8.9375 47.9375 C-9.65879379 46.64326363 -10.34800484 45.3304942 -11 44 C-11.31710938 43.37351563 -11.63421875 42.74703125 -11.9609375 42.1015625 C-15.40318381 33.85911951 -15.66064604 21.64609433 -12.75 13.25 C-11.07505691 10.1393914 -9.45956509 7.5389059 -7 5 C-6.34 5 -5.68 5 -5 5 C-5 4.34 -5 3.68 -5 3 C-2.625 1.3125 -2.625 1.3125 0 0 Z " fill="#F2C6B3" transform="translate(142,191)"/>
<path d="M0 0 C0.61875 0.66 1.2375 1.32 1.875 2 C20.40767802 20.22465567 42.73174398 26.35952214 68 28 C68 31.63 68 35.26 68 39 C43.30992118 39.95677378 21.34569027 33.29649402 2.53515625 16.51953125 C-0.16883866 13.84305791 -2.61095471 10.9578656 -5 8 C-3.58208437 5.06553114 -2.01667393 2.56667591 0 0 Z " fill="#CBA89A" transform="translate(185,390)"/>
<path d="M0 0 C3.57186418 2.6098148 7.10502304 5.22615845 10.453125 8.12109375 C22.06436505 18.15056308 35.54856671 25.59532425 51 27 C51 31.62 51 36.24 51 41 C32.07276672 41.9832329 17.62114555 31.13721588 4 19 C3.06929687 18.23816406 2.13859375 17.47632813 1.1796875 16.69140625 C-1 14 -1 14 -1.26953125 10.44921875 C-1.11871094 9.20785156 -0.96789062 7.96648437 -0.8125 6.6875 C-0.67457031 5.43324219 -0.53664062 4.17898438 -0.39453125 2.88671875 C-0.26433594 1.93410156 -0.13414062 0.98148437 0 0 Z " fill="#CFAB9C" transform="translate(202,330)"/>
<path d="M0 0 C1.98 0 3.96 0 6 0 C6.33 0.99 6.66 1.98 7 3 C7.5775 2.855625 8.155 2.71125 8.75 2.5625 C10.20591536 2.19852116 11.66417027 1.84372464 13.125 1.5 C15.07081859 1.04861276 15.07081859 1.04861276 17 0 C16.979375 0.969375 16.95875 1.93875 16.9375 2.9375 C16.64381501 5.87465895 16.64381501 5.87465895 18 7 C18.99 7.66 19.98 8.32 21 9 C21.66 8.01 22.32 7.02 23 6 C22.01 6 21.02 6 20 6 C22 4 22 4 24.7265625 3.65625 C28.73274493 4.07694696 30.93398303 5.41453517 34.375 7.5 C45.72994606 14.02547446 59.12426144 18.61887027 72 21 C71.38125 21.45375 70.7625 21.9075 70.125 22.375 C67.94080167 23.97108919 67.94080167 23.97108919 66 26 C66.66 26.33 67.32 26.66 68 27 C68 27.66 68 28.32 68 29 C68.99 29 69.98 29 71 29 C71 28.34 71 27.68 71 27 C73.31 26.67 75.62 26.34 78 26 C78 26.99 78 27.98 78 29 C79.98 29.33 81.96 29.66 84 30 C84 30.66 84 31.32 84 32 C91.92 32.99 99.84 33.98 108 35 C108 35.33 108 35.66 108 36 C100.61759143 36.21499584 93.74527671 35.72045957 86.5 34.3125 C85.5507666 34.13243408 84.6015332 33.95236816 83.62353516 33.7668457 C54.5487334 28.09199904 24.29665251 18.441359 0 1 C0 0.67 0 0.34 0 0 Z " fill="#F7AD1B" transform="translate(125,451)"/>
<path d="M0 0 C6.01418666 2.84144836 9.75543892 7.02744907 12.2734375 13.1484375 C14.58262866 22.21139205 14.16473064 33.57303666 10 42 C5.69120781 49.022836 0.40188298 55.75526488 -6 61 C-6.66 61 -7.32 61 -8 61 C-7.74605469 60.06542969 -7.49210937 59.13085938 -7.23046875 58.16796875 C-2.09702085 38.81054015 -0.42407733 20.01129528 0 0 Z " fill="#E4BDA9" transform="translate(365,193)"/>
<path d="M0 0 C0.66 0.33 1.32 0.66 2 1 C2.64604768 3.92795923 3.17338856 6.79148424 3.625 9.75 C3.7590625 10.56210938 3.893125 11.37421875 4.03125 12.2109375 C4.66380145 16.17406598 5.18008276 19.97269458 5 24 C5.66 24 6.32 24 7 24 C7.33 21.69 7.66 19.38 8 17 C8.33 17 8.66 17 9 17 C9.03963867 17.61818604 9.07927734 18.23637207 9.12011719 18.87329102 C10.14472126 34.12206019 12.36267838 47.65214229 17.40625 62.125 C18.2253674 64.71168654 18.65555015 67.31329117 19 70 C13.9557058 68.78936939 9.79234953 67.70615977 6 64 C4.94058609 60.78331179 4.24899337 57.61948935 3.640625 54.2890625 C3.08028928 51.01701587 3.08028928 51.01701587 1.9921875 48.0390625 C-1.51902993 37.28423117 -1.17981518 25.24851869 -1.1875 14.0625 C-1.18830566 12.9065332 -1.18911133 11.75056641 -1.18994141 10.55957031 C-1.13430568 2.26861137 -1.13430568 2.26861137 0 0 Z " fill="#CEA99A" transform="translate(142,191)"/>
<path d="M0 0 C0 0.99 0 1.98 0 3 C-0.61875 3.2475 -1.2375 3.495 -1.875 3.75 C-4.35068687 5.20628639 -4.95125002 6.37812506 -6 9 C-6.33 9 -6.66 9 -7 9 C-7.33 10.32 -7.66 11.64 -8 13 C-9.98 13 -11.96 13 -14 13 C-14 13.99 -14 14.98 -14 16 C-15.423125 16.0928125 -15.423125 16.0928125 -16.875 16.1875 C-17.90625 16.455625 -18.9375 16.72375 -20 17 C-21.15521502 19.47130918 -21.15521502 19.47130918 -22 22 C-24 22.875 -24 22.875 -26 23 C-26.66 22.67 -27.32 22.34 -28 22 C-28.33 22.66 -28.66 23.32 -29 24 C-30.32 24 -31.64 24 -33 24 C-31.9269128 21.40670594 -31.23698002 20.16031001 -28.875 18.5625 C-27.946875 17.7890625 -27.946875 17.7890625 -27 17 C-27.11859375 16.24976563 -27.2371875 15.49953125 -27.359375 14.7265625 C-27 12 -27 12 -25.60400391 10.68823242 C-23.57365865 9.30071637 -21.50332573 8.04439432 -19.375 6.8125 C-18.66214844 6.37486328 -17.94929688 5.93722656 -17.21484375 5.48632812 C-11.68160102 2.16130612 -6.61351426 -0.38903025 0 0 Z " fill="#F9AE1B" transform="translate(388,435)"/>
<path d="M0 0 C1.52234253 0.16266357 1.52234253 0.16266357 3.07543945 0.32861328 C5.0989911 0.54588545 7.12248015 0.76406307 9.14437866 0.99621582 C23.57216437 2.64360367 37.80123772 2.99712734 52.3125 2.875 C54.43293839 2.86493129 56.55338151 2.85581244 58.67382812 2.84765625 C63.7826727 2.82599424 68.89128123 2.79168812 74 2.75 C70.52726646 4.87614593 67.79579485 4.99318318 63.76269531 4.97705078 C61.87118744 4.97682419 61.87118744 4.97682419 59.94146729 4.97659302 C58.57035158 4.96638056 57.19923749 4.95594858 55.828125 4.9453125 C54.42136842 4.94158057 53.01460923 4.93873445 51.60784912 4.93673706 C47.91213761 4.92911476 44.21658425 4.90947845 40.52093506 4.8873291 C36.74705138 4.86684036 32.97314206 4.85772888 29.19921875 4.84765625 C21.79940721 4.82623112 14.3997258 4.79211226 7 4.75 C7 5.41 7 6.07 7 6.75 C5.35 7.08 3.7 7.41 2 7.75 C2.33 6.76 2.66 5.77 3 4.75 C0.69 4.75 -1.62 4.75 -4 4.75 C-4 5.41 -4 6.07 -4 6.75 C-4.99 6.75 -5.98 6.75 -7 6.75 C-7 6.09 -7 5.43 -7 4.75 C-7.99 4.42 -8.98 4.09 -10 3.75 C-10 3.09 -10 2.43 -10 1.75 C-6.37727338 0.06801978 -3.95853955 -0.44769197 0 0 Z " fill="#D2931E" transform="translate(200,473.25)"/>
<path d="M0 0 C1.65 0 3.3 0 5 0 C4.01 0.33 3.02 0.66 2 1 C2 1.66 2 2.32 2 3 C6.78659788 4.520858 6.78659788 4.520858 11.75 5 C14 5 14 5 17 7 C18.010625 7.474375 19.02125 7.94875 20.0625 8.4375 C23 10 23 10 25 13 C27.05925139 13.72382467 27.05925139 13.72382467 29 14 C29 14.66 29 15.32 29 16 C26.25 16.25 26.25 16.25 23 16 C20.625 14 20.625 14 19 12 C19 12.99 19 13.98 19 15 C16.5234375 15.87109375 16.5234375 15.87109375 13 16 C9.91796484 14.3895876 7.31424331 12.25328501 4.625 10.0625 C3.52091797 9.1972168 3.52091797 9.1972168 2.39453125 8.31445312 C0.58341789 6.89143549 -1.21334584 5.45352223 -3 4 C-2.34 3.67 -1.68 3.34 -1 3 C-0.67 2.01 -0.34 1.02 0 0 Z " fill="#F7AD22" transform="translate(110,435)"/>
<path d="M0 0 C0.66 0.33 1.32 0.66 2 1 C1.67 2.65 1.34 4.3 1 6 C0.01 6 -0.98 6 -2 6 C-2 6.66 -2 7.32 -2 8 C-1.01 7.67 -0.02 7.34 1 7 C-0.22341587 10.67024761 -1.83514059 11.3606842 -5.14453125 13.1484375 C-7.39478859 14.18118719 -9.54579041 14.70252005 -12 15 C-12.33 14.01 -12.66 13.02 -13 12 C-15.01508358 11.26676204 -15.01508358 11.26676204 -17 11 C-16.28082397 10.55346069 -16.28082397 10.55346069 -15.54711914 10.09790039 C-13.38470639 8.75416593 -11.22358963 7.40836126 -9.0625 6.0625 C-7.93038086 5.35963867 -7.93038086 5.35963867 -6.77539062 4.64257812 C-6.05673828 4.19462891 -5.33808594 3.74667969 -4.59765625 3.28515625 C-3.93258057 2.87144775 -3.26750488 2.45773926 -2.58227539 2.03149414 C-1.02514658 1.09387816 -1.02514658 1.09387816 0 0 Z " fill="#FAAD1B" transform="translate(378,436)"/>
<path d="M0 0 C-0.33 0.66 -0.66 1.32 -1 2 C1.97 2.495 1.97 2.495 5 3 C5 3.66 5 4.32 5 5 C16.88 6.485 16.88 6.485 29 8 C29 8.33 29 8.66 29 9 C21.54341572 9.22592993 14.62710288 8.68258047 7.3125 7.25 C5.89880127 6.98364746 5.89880127 6.98364746 4.45654297 6.71191406 C-3.77845318 5.12434408 -11.90369528 3.1806666 -20 1 C-16.90226756 0.15937603 -14.21667249 -0.08935201 -11 0 C-11 0.66 -11 1.32 -11 2 C-10.01 2 -9.02 2 -8 2 C-8 1.34 -8 0.68 -8 0 C-4.71023192 -1.09658936 -3.28696233 -0.79953138 0 0 Z " fill="#F2BA48" transform="translate(204,478)"/>
<path d="M0 0 C1.98 0.99 1.98 0.99 4 2 C2.68 2 1.36 2 0 2 C0 1.34 0 0.68 0 0 Z M-16 2 C-14.35 2 -12.7 2 -11 2 C-11 2.66 -11 3.32 -11 4 C-9.35 4 -7.7 4 -6 4 C-6 4.66 -6 5.32 -6 6 C-4.35 5.01 -2.7 4.02 -1 3 C-0.34 4.65 0.32 6.3 1 8 C4.96 8.33 8.92 8.66 13 9 C13.33 9.99 13.66 10.98 14 12 C13.01 12 12.02 12 11 12 C11 12.66 11 13.32 11 14 C1.41186264 11.7384246 -7.19994885 7.29793681 -16 3 C-16 2.67 -16 2.34 -16 2 Z " fill="#F4B339" transform="translate(160,460)"/>
<path d="M0 0 C0.66 0 1.32 0 2 0 C2 0.99 2 1.98 2 3 C2.99 3.33 3.98 3.66 5 4 C4.01 4.33 3.02 4.66 2 5 C2 5.66 2 6.32 2 7 C3.32 6.34 4.64 5.68 6 5 C6 4.01 6 3.02 6 2 C10.01804691 1.15901344 13.01803543 0.94595055 17 2 C16.38125 2.45375 15.7625 2.9075 15.125 3.375 C12.86682692 5.10183823 11.27857874 6.44284253 10 9 C-2.66970387 7.07289294 -2.66970387 7.07289294 -8 5 C-7.38125 4.855625 -6.7625 4.71125 -6.125 4.5625 C-2.64224101 3.64059321 -2.10104083 3.15156125 0 0 Z " fill="#F6AC20" transform="translate(180,470)"/>
<path d="M0 0 C0.33 0.66 0.66 1.32 1 2 C3.02463255 2.65213292 3.02463255 2.65213292 5 3 C2.27173504 4.77222551 -0.4577719 6.54252913 -3.1875 8.3125 C-3.95642578 8.81201172 -4.72535156 9.31152344 -5.51757812 9.82617188 C-7.00996665 10.79334212 -8.50452912 11.75716786 -10.00146484 12.71728516 C-11.64901028 13.77472514 -13.28851863 14.84467643 -14.92578125 15.91796875 C-15.95251953 16.45357422 -15.95251953 16.45357422 -17 17 C-17.66 16.67 -18.32 16.34 -19 16 C-17.875 13.5625 -17.875 13.5625 -16 11 C-12.8125 10.1875 -12.8125 10.1875 -10 10 C-10 9.01 -10 8.02 -10 7 C-9.21625 6.855625 -8.4325 6.71125 -7.625 6.5625 C-5.03578982 6.12201075 -5.03578982 6.12201075 -3 5 C-3.33 4.01 -3.66 3.02 -4 2 C-2.68 1.34 -1.36 0.68 0 0 Z " fill="#F3B73D" transform="translate(384,441)"/>
<path d="M0 0 C0.66 0.33 1.32 0.66 2 1 C-0.0072908 4.0109362 -0.83884224 4.63016497 -4 6 C-3.195625 6.391875 -2.39125 6.78375 -1.5625 7.1875 C1 9 1 9 1.6875 11.5625 C1.790625 12.366875 1.89375 13.17125 2 14 C2.66 14.66 3.32 15.32 4 16 C3.625 18.625 3.625 18.625 3 21 C-7 9.46153846 -7 9.46153846 -7 3 C-4.69631264 1.93347808 -2.35981813 0.93578995 0 0 Z " fill="#0F0B0B" transform="translate(105,398)"/>
<path d="M0 0 C1.98 0 3.96 0 6 0 C6.33 0.99 6.66 1.98 7 3 C7.5775 2.855625 8.155 2.71125 8.75 2.5625 C10.20591536 2.19852116 11.66417027 1.84372464 13.125 1.5 C15.07081859 1.04861276 15.07081859 1.04861276 17 0 C16.979375 0.969375 16.95875 1.93875 16.9375 2.9375 C16.64381501 5.87465895 16.64381501 5.87465895 18 7 C18.36162029 8.32594105 18.69728039 9.65938457 19 11 C14.25652774 9.62309544 10.27474838 7.56160559 6.125 4.9375 C5.53203125 4.57333984 4.9390625 4.20917969 4.328125 3.83398438 C2.86464287 2.9218371 1.4292745 1.96486632 0 1 C0 0.67 0 0.34 0 0 Z " fill="#F5B63F" transform="translate(125,451)"/>
<path d="M0 0 C2 3.75 2 3.75 2 6 C1.34 6 0.68 6 0 6 C0.66 8.97 1.32 11.94 2 15 C1.01 15.66 0.02 16.32 -1 17 C-1.2502157 19.91634129 -1.2502157 19.91634129 -1 23 C-1 24.32 -1 25.64 -1 27 C-1.99 27.33 -2.98 27.66 -4 28 C-4.33 28.99 -4.66 29.98 -5 31 C-3.91800832 20.48558677 -2.44795873 10.29774639 0 0 Z " fill="#F3BC55" transform="translate(23,197)"/>
<path d="M0 0 C0.46148437 0.35191406 0.92296875 0.70382812 1.3984375 1.06640625 C6.20882583 4.70747093 11.10998128 8.18196012 16.09375 11.58203125 C16.7228125 12.04996094 17.351875 12.51789063 18 13 C18 13.33 18 13.66 18 14 C15.3125 14.3125 15.3125 14.3125 12 14 C10.31183067 12.35511706 8.64646685 10.68662458 7 9 C3.48809191 7.77030122 3.48809191 7.77030122 0 7 C-1.35350594 6.37530495 -2.69934483 5.7283669 -4 5 C-3.34 4.54625 -2.68 4.0925 -2 3.625 C-1.34 3.08875 -0.68 2.5525 0 2 C0 1.34 0 0.68 0 0 Z " fill="#EDA820" transform="translate(123,435)"/>
<path d="M0 0 C4.47950978 0.32068079 8.18831239 1.6776097 12.3671875 3.25 C13.1509375 3.53617187 13.9346875 3.82234375 14.7421875 4.1171875 C16.66200896 4.8195612 18.57755186 5.53361072 20.4921875 6.25 C20.4921875 6.58 20.4921875 6.91 20.4921875 7.25 C16.02379535 7.46278058 12.66956224 6.84138085 8.4921875 5.25 C8.4921875 4.59 8.4921875 3.93 8.4921875 3.25 C7.7703125 3.600625 7.0484375 3.95125 6.3046875 4.3125 C3.179917 5.35409017 1.61056754 5.14096572 -1.5078125 4.25 C-1.8378125 4.91 -2.1678125 5.57 -2.5078125 6.25 C-2.89000017 4.59385343 -3.22176352 2.92542976 -3.5078125 1.25 C-2.5078125 0.25 -2.5078125 0.25 0 0 Z " fill="#E6A31F" transform="translate(162.5078125,461.75)"/>
<path d="M0 0 C0.33 0 0.66 0 1 0 C1.06058594 1.14597656 1.12117188 2.29195313 1.18359375 3.47265625 C1.26806989 5.00261297 1.35271427 6.53256041 1.4375 8.0625 C1.47681641 8.81466797 1.51613281 9.56683594 1.55664062 10.34179688 C1.75819098 13.92319157 2.05547608 17.32530649 2.66015625 20.87109375 C3 24 3 24 1 27 C-3.08060453 10.14321698 -3.08060453 10.14321698 -2 3 C-1.34 2.01 -0.68 1.02 0 0 Z " fill="#F7B22E" transform="translate(22,284)"/>
<path d="M0 0 C1.65 0 3.3 0 5 0 C5.33 1.98 5.66 3.96 6 6 C-0.86036401 5.34034961 -7.34443923 3.7637236 -14 2 C-10.73086376 0.96884721 -8.13958652 1.0361016 -4.75 1.4375 C-3.85796875 1.53933594 -2.9659375 1.64117187 -2.046875 1.74609375 C-1.37140625 1.82988281 -0.6959375 1.91367187 0 2 C0 1.34 0 0.68 0 0 Z " fill="#1A140C" transform="translate(199,468)"/>
<path d="M0 0 C0.66 0 1.32 0 2 0 C2 0.66 2 1.32 2 2 C1.34 2 0.68 2 0 2 C0 2.99 0 3.98 0 5 C0.66 5.33 1.32 5.66 2 6 C0.88121617 7.17262904 -0.24523051 8.33795138 -1.375 9.5 C-2.00148438 10.1496875 -2.62796875 10.799375 -3.2734375 11.46875 C-5 13 -5 13 -7 13 C-7 12.34 -7 11.68 -7 11 C-7.66 10.67 -8.32 10.34 -9 10 C-7.5484451 8.32742645 -6.08855591 6.66208242 -4.625 5 C-3.81289063 4.071875 -3.00078125 3.14375 -2.1640625 2.1875 C-1.44992187 1.465625 -0.73578125 0.74375 0 0 Z " fill="#F7AF28" transform="translate(409,419)"/>
<path d="M0 0 C1.65 0 3.3 0 5 0 C4.01 0.33 3.02 0.66 2 1 C2 1.66 2 2.32 2 3 C4.31 3.66 6.62 4.32 9 5 C9 5.99 9 6.98 9 8 C8.34 7.67 7.68 7.34 7 7 C7.33 8.32 7.66 9.64 8 11 C3.40693504 9.5140084 0.56430755 7.14985318 -3 4 C-2.34 3.67 -1.68 3.34 -1 3 C-0.67 2.01 -0.34 1.02 0 0 Z " fill="#F5B430" transform="translate(110,435)"/>
<path d="M0 0 C3 1 3 1 4 3 C7.02934491 3.65772428 7.02934491 3.65772428 10 4 C10 3.34 10 2.68 10 2 C10.99 2 11.98 2 13 2 C12.25 3.9375 12.25 3.9375 11 6 C8.04680182 7.23843794 7.12561472 7.04187157 4 6 C3.67 6.66 3.34 7.32 3 8 C2.34 7.01 1.68 6.02 1 5 C-0.66014616 4.63557767 -2.32706064 4.30027117 -4 4 C-4.33 3.34 -4.66 2.68 -5 2 C-2.525 2.495 -2.525 2.495 0 3 C0 2.01 0 1.02 0 0 Z " fill="#F9AE15" transform="translate(129,447)"/>
<path d="M0 0 C5.75 -0.125 5.75 -0.125 8 1 C7.55530671 6.03985731 5.28656638 8.37634988 2 12 C1.34 11.34 0.68 10.68 0 10 C0.375 7.375 0.375 7.375 1 5 C1.99 5 2.98 5 4 5 C2.68 3.35 1.36 1.7 0 0 Z " fill="#F6B12D" transform="translate(431,390)"/>
<path d="M0 0 C2.64 0 5.28 0 8 0 C5.35039045 3.63094642 2.98175544 5.89851796 -1 8 C-1 7.34 -1 6.68 -1 6 C-1.99 5.67 -2.98 5.34 -4 5 C-3.67 4.34 -3.34 3.68 -3 3 C-2.34 3 -1.68 3 -1 3 C-0.67 2.01 -0.34 1.02 0 0 Z " fill="#F6B331" transform="translate(394,432)"/>
<path d="M0 0 C7.63054095 0.61044328 14.70189474 2.79621821 22 5 C22 5.33 22 5.66 22 6 C17.545 6.495 17.545 6.495 13 7 C13 6.34 13 5.68 13 5 C10.09375703 4.26010787 7.17849225 3.58349094 4.25 2.9375 C3.45078125 2.76089844 2.6515625 2.58429687 1.828125 2.40234375 C1.22484375 2.26957031 0.6215625 2.13679688 0 2 C0 1.34 0 0.68 0 0 Z " fill="#F2BD53" transform="translate(299,25)"/>
<path d="M0 0 C0.99 0.33 1.98 0.66 3 1 C2.34 2.32 1.68 3.64 1 5 C0.01 4.67 -0.98 4.34 -2 4 C-1.67 3.34 -1.34 2.68 -1 2 C-1.86625 2.2165625 -1.86625 2.2165625 -2.75 2.4375 C-4.83333333 2.95833333 -6.91666667 3.47916667 -9 4 C-9.33 2.68 -9.66 1.36 -10 0 C-5.87394203 -2.12197267 -4.12204553 -2.06102276 0 0 Z " fill="#F9AE18" transform="translate(127,442)"/>
<path d="M0 0 C0.66 0 1.32 0 2 0 C2.99928333 2.698065 3.03624754 3.88010429 2.1875 6.6875 C1 9 1 9 -1 10 C-1.65555119 12.52733235 -1.65555119 12.52733235 -2 15 C-5 15 -5 15 -7 14 C-6.4946875 13.24074219 -5.989375 12.48148437 -5.46875 11.69921875 C-4.8190625 10.70535156 -4.169375 9.71148437 -3.5 8.6875 C-2.8503125 7.70136719 -2.200625 6.71523438 -1.53125 5.69921875 C0.2467127 3.08232361 0.2467127 3.08232361 0 0 Z " fill="#E9A722" transform="translate(407,401)"/>
<path d="M0 0 C-0.25 1.875 -0.25 1.875 -1 4 C-2.8125 5.3125 -2.8125 5.3125 -5 6 C-6.875 5.625 -6.875 5.625 -9 5 C-10.99963028 4.96154557 -13.00051633 4.95455719 -15 5 C-12.50742747 3.33828498 -10.20483487 2.0612321 -7.5 0.8125 C-6.7265625 0.44769531 -5.953125 0.08289063 -5.15625 -0.29296875 C-3 -1 -3 -1 0 0 Z " fill="#D7991F" transform="translate(343,458)"/>
<path d="M0 0 C0.33 0 0.66 0 1 0 C1.19397476 1.97854258 1.38001321 3.9578648 1.5625 5.9375 C1.66691406 7.03964844 1.77132812 8.14179688 1.87890625 9.27734375 C1.91886719 10.17582031 1.95882812 11.07429687 2 12 C1.67 12.33 1.34 12.66 1 13 C0.76346477 15.52596259 0.57826308 18.03107207 0.4375 20.5625 C0.39431641 21.27341797 0.35113281 21.98433594 0.30664062 22.71679688 C0.20028223 24.47761912 0.09961154 26.2387832 0 28 C-0.33 28 -0.66 28 -1 28 C-1.02891949 23.70834738 -1.04677118 19.41671964 -1.0625 15.125 C-1.07087891 13.90167969 -1.07925781 12.67835938 -1.08789062 11.41796875 C-1.09111328 10.25136719 -1.09433594 9.08476562 -1.09765625 7.8828125 C-1.10289307 6.80402832 -1.10812988 5.72524414 -1.11352539 4.61376953 C-1 2 -1 2 0 0 Z " fill="#D4AE9E" transform="translate(142,191)"/>
<path d="M0 0 C0.96099609 0.12568359 0.96099609 0.12568359 1.94140625 0.25390625 C7.23075314 0.87664605 11.77045499 1.02317185 17 0 C17 1.98 17 3.96 17 6 C16.4328125 5.85304688 15.865625 5.70609375 15.28125 5.5546875 C13.7892525 5.19190729 12.28871088 4.86225035 10.78125 4.5703125 C10.0284375 4.42335938 9.275625 4.27640625 8.5 4.125 C7.7471875 3.98320312 6.994375 3.84140625 6.21875 3.6953125 C3.67558947 2.89833614 2.0367855 1.69423521 0 0 Z " fill="#E6A320" transform="translate(383,392)"/>
<path d="M0 0 C0.99 0.495 0.99 0.495 2 1 C2 1.66 2 2.32 2 3 C2.99 3.33 3.98 3.66 5 4 C6.39712274 5.95597184 7.73779907 7.95436401 9 10 C8.01 10 7.02 10 6 10 C6 10.66 6 11.32 6 12 C4.68 11.67 3.36 11.34 2 11 C1.67 9.68 1.34 8.36 1 7 C1.66 7 2.32 7 3 7 C3 6.01 3 5.02 3 4 C2.34 4 1.68 4 1 4 C0.67 2.68 0.34 1.36 0 0 Z " fill="#F5B53C" transform="translate(414,86)"/>
<path d="M0 0 C3.375 -0.125 3.375 -0.125 7 0 C7.66 0.66 8.32 1.32 9 2 C8.01 2 7.02 2 6 2 C5.67 2.99 5.34 3.98 5 5 C3.02 5 1.04 5 -1 5 C-1 4.34 -1 3.68 -1 3 C-1.99 2.67 -2.98 2.34 -4 2 C-2.68 2 -1.36 2 0 2 C0 1.34 0 0.68 0 0 Z " fill="#F9AD1C" transform="translate(306,475)"/>
<path d="M0 0 C4.08963819 2.28538605 7.46362104 4.95706926 11 8 C10.01 8 9.02 8 8 8 C6.989375 8.185625 5.97875 8.37125 4.9375 8.5625 C2 9 2 9 0 8 C0.66 6.35 1.32 4.7 2 3 C1.34 2.67 0.68 2.34 0 2 C0 1.34 0 0.68 0 0 Z " fill="#F3BA46" transform="translate(394,69)"/>
<path d="M0 0 C4.92468601 2.34985018 9.57586206 4.7925 14 8 C14 8.33 14 8.66 14 9 C12.02 9 10.04 9 8 9 C7.67 7.68 7.34 6.36 7 5 C6.34 5 5.68 5 5 5 C5 5.66 5 6.32 5 7 C4.01 7 3.02 7 2 7 C2 5.68 2 4.36 2 3 C1.34 2.67 0.68 2.34 0 2 C0 1.34 0 0.68 0 0 Z " fill="#F2B94A" transform="translate(369,52)"/>
<path d="M0 0 C0.66 0 1.32 0 2 0 C2 0.99 2 1.98 2 3 C2.99 3.33 3.98 3.66 5 4 C4.01 4.33 3.02 4.66 2 5 C2.33 5.99 2.66 6.98 3 8 C-0.63 7.01 -4.26 6.02 -8 5 C-6.68 4.67 -5.36 4.34 -4 4 C-1.66924071 3.04134491 -1.66924071 3.04134491 0 0 Z " fill="#F5B538" transform="translate(180,470)"/>
<path d="M0 0 C0.33 0 0.66 0 1 0 C1 2.31 1 4.62 1 7 C1.66 7.33 2.32 7.66 3 8 C2.01 9.32 1.02 10.64 0 12 C0.99 11.67 1.98 11.34 3 11 C3 11.66 3 12.32 3 13 C3.99 13.33 4.98 13.66 6 14 C6 14.66 6 15.32 6 16 C3.03824877 15.38722388 1.61941217 14.74627478 -1 13 C-0.67 8.71 -0.34 4.42 0 0 Z " fill="#EBA62E" transform="translate(361,177)"/>
<path d="M0 0 C1.98 1.65 3.96 3.3 6 5 C5.01 5.33 4.02 5.66 3 6 C3 6.66 3 7.32 3 8 C1.125 7.875 1.125 7.875 -1 7 C-2.25 3.9375 -2.25 3.9375 -3 1 C-2.01 1.33 -1.02 1.66 0 2 C0 1.34 0 0.68 0 0 Z " fill="#F6B12F" transform="translate(405,78)"/>
<path d="M0 0 C1.8125 0.75 1.8125 0.75 2.8125 2.75 C4.4625 2.75 6.1125 2.75 7.8125 2.75 C7.4825 4.07 7.1525 5.39 6.8125 6.75 C6.1525 6.481875 5.4925 6.21375 4.8125 5.9375 C1.16310933 4.49294953 -2.50995433 3.12128822 -6.1875 1.75 C-3.9127187 0.36888278 -2.68578639 -0.30694702 0 0 Z " fill="#F8AF19" transform="translate(336.1875,462.25)"/>
<path d="M0 0 C2.31 0.33 4.62 0.66 7 1 C7 1.66 7 2.32 7 3 C8.175625 3.185625 8.175625 3.185625 9.375 3.375 C12 4 12 4 14 6 C14 6.66 14 7.32 14 8 C8.76481294 6.56032356 4.36973991 4.18303389 0 1 C0 0.67 0 0.34 0 0 Z " fill="#23190E" transform="translate(146,451)"/>
<path d="M0 0 C0.33 0.99 0.66 1.98 1 3 C2.98 2.67 4.96 2.34 7 2 C7 1.34 7 0.68 7 0 C7.66 0 8.32 0 9 0 C8.34 1.32 7.68 2.64 7 4 C6.34 4 5.68 4 5 4 C4.67 4.99 4.34 5.98 4 7 C3.236875 6.67 2.47375 6.34 1.6875 6 C-0.99069135 4.82563314 -0.99069135 4.82563314 -4 5 C-2.68 3.35 -1.36 1.7 0 0 Z " fill="#ECA322" transform="translate(399,416)"/>
<path d="M0 0 C0.33 0.66 0.66 1.32 1 2 C-0.21484375 4.3828125 -0.21484375 4.3828125 -1.9375 7.125 C-2.50339844 8.03507812 -3.06929688 8.94515625 -3.65234375 9.8828125 C-4.09707031 10.58148438 -4.54179687 11.28015625 -5 12 C-5.66 11.67 -6.32 11.34 -7 11 C-7 9.35 -7 7.7 -7 6 C-5.35 5.34 -3.7 4.68 -2 4 C-2 3.01 -2 2.02 -2 1 C-1.34 0.67 -0.68 0.34 0 0 Z " fill="#EABD9E" transform="translate(335,284)"/>
<path d="M0 0 C1.4606285 2.64738916 2 3.89448334 2 7 C1.34 7 0.68 7 0 7 C0.103125 7.763125 0.20625 8.52625 0.3125 9.3125 C0.209375 10.199375 0.10625 11.08625 0 12 C-2.5 13.8125 -2.5 13.8125 -5 15 C-1.92482916 4.44191344 -1.92482916 4.44191344 0 0 Z " fill="#F2BB4B" transform="translate(34,164)"/>
<path d="M0 0 C0.66 0.33 1.32 0.66 2 1 C1.67 1.66 1.34 2.32 1 3 C1.66 3.33 2.32 3.66 3 4 C1.75 5.5625 1.75 5.5625 0 7 C-1.33333333 6.66666667 -2.66666667 6.33333333 -4 6 C-5.77190909 7.35444301 -5.77190909 7.35444301 -7 9 C-7.66 8.67 -8.32 8.34 -9 8 C-6.03 5.36 -3.06 2.72 0 0 Z " fill="#F4B949" transform="translate(105,70)"/>
<path d="M0 0 C-2.97 1.32 -5.94 2.64 -9 4 C-8.34 4.66 -7.68 5.32 -7 6 C-8.32 6.33 -9.64 6.66 -11 7 C-11 6.01 -11 5.02 -11 4 C-13.31 4.33 -15.62 4.66 -18 5 C-15.17770487 3.11846991 -12.72109829 1.99965295 -9.5625 0.8125 C-8.61503906 0.44769531 -7.66757813 0.08289063 -6.69140625 -0.29296875 C-4 -1 -4 -1 0 0 Z " fill="#F1BE5B" transform="translate(184,31)"/>
<path d="M0 0 C0.99 0.33 1.98 0.66 3 1 C3.125 5.75 3.125 5.75 2 8 C-1.65316671 6.75023244 -2.78065836 6.32901247 -5 3 C-2.6875 1.4375 -2.6875 1.4375 0 0 Z " fill="#F5B438" transform="translate(123,443)"/>
<path d="M0 0 C0.66 0.33 1.32 0.66 2 1 C-0.89066059 10.59453303 -0.89066059 10.59453303 -4 14 C-4.08096803 12.54257537 -4.13917774 11.08387193 -4.1875 9.625 C-4.22230469 8.81289063 -4.25710938 8.00078125 -4.29296875 7.1640625 C-4.19628906 6.44992187 -4.09960938 5.73578125 -4 5 C-3.01 4.34 -2.02 3.68 -1 3 C-0.67 2.01 -0.34 1.02 0 0 Z " fill="#F3BA48" transform="translate(464,345)"/>
<path d="M0 0 C1.49828872 3.88235819 0.43110582 6.43449288 -0.9375 10.25 C-1.31777344 11.32765625 -1.69804687 12.4053125 -2.08984375 13.515625 C-2.39019531 14.33546875 -2.69054687 15.1553125 -3 16 C-3.33 16 -3.66 16 -4 16 C-4 11.71 -4 7.42 -4 3 C-3.01 3 -2.02 3 -1 3 C-0.67 2.01 -0.34 1.02 0 0 Z " fill="#F3BE57" transform="translate(476,314)"/>
<path d="M0 0 C0 1.65 0 3.3 0 5 C1.65 5 3.3 5 5 5 C5 7.31 5 9.62 5 12 C1.36440339 8.56638098 -1.36113346 5.2026393 -4 1 C-1 0 -1 0 0 0 Z " fill="#F3BB4B" transform="translate(68,394)"/>
<path d="M0 0 C2 1 2 1 3 3 C1.68 3 0.36 3 -1 3 C-1.33 4.32 -1.66 5.64 -2 7 C-1.34 7.33 -0.68 7.66 0 8 C-0.99 8.33 -1.98 8.66 -3 9 C-3.33 8.01 -3.66 7.02 -4 6 C-6.01508358 5.26676204 -6.01508358 5.26676204 -8 5 C-6.71475739 4.13619741 -5.42157581 3.28419631 -4.125 2.4375 C-3.04605469 1.72400391 -3.04605469 1.72400391 -1.9453125 0.99609375 C-1.30335938 0.66738281 -0.66140625 0.33867187 0 0 Z " fill="#DF9F1F" transform="translate(369,442)"/>
<path d="M0 0 C0.66 0.33 1.32 0.66 2 1 C-0.0072908 4.0109362 -0.83884224 4.63016497 -4 6 C-3.67 6.66 -3.34 7.32 -3 8 C-3.66 8.66 -4.32 9.32 -5 10 C-6.4606285 7.35261084 -7 6.10551666 -7 3 C-4.69631264 1.93347808 -2.35981813 0.93578995 0 0 Z " fill="#2F1F11" transform="translate(105,398)"/>
<path d="M0 0 C-0.66 1.32 -1.32 2.64 -2 4 C-2.99 3.67 -3.98 3.34 -5 3 C-6.89212737 2.77820215 -8.78884472 2.59385985 -10.6875 2.4375 C-11.68136719 2.35371094 -12.67523438 2.26992188 -13.69921875 2.18359375 C-14.83810547 2.09271484 -14.83810547 2.09271484 -16 2 C-16 1.67 -16 1.34 -16 1 C-10.61509359 0.08342019 -5.45769811 -0.11138159 0 0 Z " fill="#DE9F1F" transform="translate(182,393)"/>
<path d="M0 0 C0.88370398 2.87051432 1.13271517 3.67992224 -0.0625 6.5625 C-2.37846312 9.47613102 -4.60264317 10.56556045 -8 12 C-6.59023295 8.96147295 -4.91129772 6.4060405 -2.875 3.75 C-2.06675781 2.69039063 -2.06675781 2.69039063 -1.2421875 1.609375 C-0.83226563 1.07828125 -0.42234375 0.5471875 0 0 Z " fill="#F1BE4F" transform="translate(68,107)"/>
<path d="M0 0 C1.04449911 3.13349732 0.93423645 3.98968256 0 7 C-1.98 6.34 -3.96 5.68 -6 5 C-4.87312259 1.61936778 -3.78825335 0 0 0 Z " fill="#140F0A" transform="translate(166,455)"/>
<path d="M0 0 C0.66 0.33 1.32 0.66 2 1 C1.67 2.65 1.34 4.3 1 6 C0.01 6 -0.98 6 -2 6 C-2.33 6.66 -2.66 7.32 -3 8 C-3 7.34 -3 6.68 -3 6 C-4.32 5.67 -5.64 5.34 -7 5 C-4.69 3.35 -2.38 1.7 0 0 Z " fill="#E5A320" transform="translate(378,436)"/>
<path d="M0 0 C0.33 0.99 0.66 1.98 1 3 C-1.97 5.475 -1.97 5.475 -5 8 C-5.75 6.25 -5.75 6.25 -6 4 C-2.77777778 0 -2.77777778 0 0 0 Z " fill="#F5B63C" transform="translate(429,403)"/>
<path d="M0 0 C0.66 0 1.32 0 2 0 C2.1546875 1.423125 2.1546875 1.423125 2.3125 2.875 C2.68539295 6.29107501 2.68539295 6.29107501 6 8 C5.34 8 4.68 8 4 8 C4 8.66 4 9.32 4 10 C4.66 10.33 5.32 10.66 6 11 C5.34 11.66 4.68 12.32 4 13 C3.13372601 11.40233897 2.28233535 9.79660056 1.4375 8.1875 C0.96183594 7.29417969 0.48617187 6.40085937 -0.00390625 5.48046875 C-1 3 -1 3 0 0 Z " fill="#F2BB48" transform="translate(38,348)"/>
<path d="M0 0 C2 3.75 2 3.75 2 6 C1.34 6 0.68 6 0 6 C0.66 8.97 1.32 11.94 2 15 C1.01 15 0.02 15 -1 15 C-1.02715383 13.25008666 -1.04646551 11.50005055 -1.0625 9.75 C-1.07410156 8.77546875 -1.08570312 7.8009375 -1.09765625 6.796875 C-1.01195577 4.34241322 -0.70706066 2.33831086 0 0 Z " fill="#F4B841" transform="translate(23,197)"/>
<path d="M0 0 C0.66 0 1.32 0 2 0 C0.58707905 4.8274799 -1.42974154 8.7162359 -4 13 C-4.66 12.01 -5.32 11.02 -6 10 C-5.01 9.67 -4.02 9.34 -3 9 C-3 7.68 -3 6.36 -3 5 C-2.34 5 -1.68 5 -1 5 C-0.67 3.35 -0.34 1.7 0 0 Z " fill="#F2BC4A" transform="translate(456,362)"/>
<path d="M0 0 C4.72763768 2.73152399 6.92642516 4.93126149 9 10 C7.02 9.34 5.04 8.68 3 8 C3 6.68 3 5.36 3 4 C2.34 4 1.68 4 1 4 C0.67 2.68 0.34 1.36 0 0 Z " fill="#ECBBA1" transform="translate(366,193)"/>
<path d="M0 0 C1.65 0.33 3.3 0.66 5 1 C1.4912812 4.09592835 -1.49197399 5.74194623 -6 7 C-5.67 6.01 -5.34 5.02 -5 4 C-2.4375 2.8125 -2.4375 2.8125 0 2 C0 1.34 0 0.68 0 0 Z " fill="#F1BD50" transform="translate(360,457)"/>
<path d="M0 0 C1.32 0.99 2.64 1.98 4 3 C4.33 2.67 4.66 2.34 5 2 C7.33297433 1.95907063 9.66705225 1.95758277 12 2 C12 2.33 12 2.66 12 3 C10.6078125 3.433125 10.6078125 3.433125 9.1875 3.875 C5.90208333 4.8875 5.90208333 4.8875 3 7 C0 2.25 0 2.25 0 0 Z " fill="#BC986E" transform="translate(319,393)"/>
<path d="M0 0 C4.875 4.75 4.875 4.75 6 7 C5.34 7 4.68 7 4 7 C4 7.66 4 8.32 4 9 C3.01 8.67 2.02 8.34 1 8 C1.33 6.68 1.66 5.36 2 4 C1.01 4.33 0.02 4.66 -1 5 C-0.67 3.35 -0.34 1.7 0 0 Z " fill="#F6B128" transform="translate(134,240)"/>
<path d="M0 0 C0.33 0 0.66 0 1 0 C1 2.64 1 5.28 1 8 C0.01 8 -0.98 8 -2 8 C-2.33 8.99 -2.66 9.98 -3 11 C-3.33 10.34 -3.66 9.68 -4 9 C-3.22265625 6.8359375 -3.22265625 6.8359375 -2.0625 4.375 C-1.68222656 3.55773437 -1.30195312 2.74046875 -0.91015625 1.8984375 C-0.60980469 1.27195313 -0.30945312 0.64546875 0 0 Z " fill="#F0BD4C" transform="translate(39,153)"/>
<path d="M0 0 C1.32 0.99 2.64 1.98 4 3 C-0.95 4.485 -0.95 4.485 -6 6 C-5.67 5.01 -5.34 4.02 -5 3 C-3.35 2.67 -1.7 2.34 0 2 C0 1.34 0 0.68 0 0 Z " fill="#F2BB50" transform="translate(339,467)"/>
<path d="M0 0 C1.65 0.33 3.3 0.66 5 1 C3.02 3.97 3.02 3.97 1 7 C0.34 6.34 -0.32 5.68 -1 5 C-0.625 2.375 -0.625 2.375 0 0 Z " fill="#F4B63D" transform="translate(432,395)"/>
<path d="M0 0 C0.86625 0.2784375 0.86625 0.2784375 1.75 0.5625 C4.20692525 1.04023546 5.64397534 0.75729364 8 0 C8.33 0.99 8.66 1.98 9 3 C8.01 3 7.02 3 6 3 C5.67 3.66 5.34 4.32 5 5 C3.35 3.35 1.7 1.7 0 0 Z " fill="#F4B428" transform="translate(61,391)"/>
<path d="M0 0 C1.22329074 3.66987221 0.88021006 6.33967822 0.5625 10.1875 C0.46066406 11.45980469 0.35882813 12.73210937 0.25390625 14.04296875 C0.12822266 15.50669922 0.12822266 15.50669922 0 17 C-0.33 17 -0.66 17 -1 17 C-1.33 11.72 -1.66 6.44 -2 1 C-1.34 0.67 -0.68 0.34 0 0 Z " fill="#F5B227" transform="translate(379,204)"/>
<path d="M0 0 C1.90389849 2.85584773 2.69462177 4.9311762 3.625 8.1875 C4.01558594 9.53908203 4.01558594 9.53908203 4.4140625 10.91796875 C4.60742188 11.60503906 4.80078125 12.29210937 5 13 C0.17970402 9.14376321 0.17970402 9.14376321 -0.33203125 5.88671875 C-0.3145776 3.92143786 -0.16596091 1.95833873 0 0 Z " fill="#F3BD58" transform="translate(467,164)"/>
<path d="M0 0 C2.33294775 -0.04241723 4.66702567 -0.04092937 7 0 C8 1 8 1 8.0625 3.5625 C8.041875 4.366875 8.02125 5.17125 8 6 C6.66402348 5.19185349 5.331275 4.37836819 4 3.5625 C3.2575 3.11003906 2.515 2.65757812 1.75 2.19140625 C1.1725 1.79824219 0.595 1.40507812 0 1 C0 0.67 0 0.34 0 0 Z " fill="#1C150E" transform="translate(131,441)"/>
<path d="M0 0 C1.12451909 3.37355726 1.68372903 6.45776514 2 10 C1.01 11.485 1.01 11.485 0 13 C-0.66 9.04 -1.32 5.08 -2 1 C-1.34 0.67 -0.68 0.34 0 0 Z " fill="#F2BF5A" transform="translate(23,298)"/>
<path d="M0 0 C1.98 0.495 1.98 0.495 4 1 C4.66 3.31 5.32 5.62 6 8 C5.34 8 4.68 8 4 8 C4 6.68 4 5.36 4 4 C2.68 4.33 1.36 4.66 0 5 C-0.33 4.34 -0.66 3.68 -1 3 C-0.34 2.67 0.32 2.34 1 2 C0.67 1.34 0.34 0.68 0 0 Z " fill="#F4B033" transform="translate(156,260)"/>
<path d="M0 0 C0.33 0 0.66 0 1 0 C1.25 7.625 1.25 7.625 -1 11 C-1.66 11 -2.32 11 -3 11 C-3 9.68 -3 8.36 -3 7 C-2.34 7 -1.68 7 -1 7 C-0.67 4.69 -0.34 2.38 0 0 Z " fill="#C29A86" transform="translate(150,208)"/>
<path d="M0 0 C3.3 0 6.6 0 10 0 C10.33 0.99 10.66 1.98 11 3 C9.741875 2.87625 8.48375 2.7525 7.1875 2.625 C6.12595703 2.52058594 6.12595703 2.52058594 5.04296875 2.4140625 C3 2 3 2 0 0 Z " fill="#3C2913" transform="translate(185,469)"/>
<path d="M0 0 C4.875 1.75 4.875 1.75 6 4 C3.69 4.66 1.38 5.32 -1 6 C-0.67 4.02 -0.34 2.04 0 0 Z " fill="#140E0D" transform="translate(308,464)"/>
<path d="M0 0 C1.65 0 3.3 0 5 0 C5 0.66 5 1.32 5 2 C6.65 2 8.3 2 10 2 C10 2.99 10 3.98 10 5 C6.08788267 3.84414715 3.1254959 2.64465038 0 0 Z " fill="#F2BD55" transform="translate(144,462)"/>
<path d="M0 0 C1.32 0.33 2.64 0.66 4 1 C4 1.66 4 2.32 4 3 C3.34 3 2.68 3 2 3 C1.01 4.485 1.01 4.485 0 6 C-0.99 5.67 -1.98 5.34 -3 5 C-2.01 3.35 -1.02 1.7 0 0 Z " fill="#F5B324" transform="translate(463,343)"/>
<path d="M0 0 C0.66 0.33 1.32 0.66 2 1 C1.4140625 7.15234375 1.4140625 7.15234375 1 9 C0.01 9.495 0.01 9.495 -1 10 C-1.02689216 8.52093108 -1.04634621 7.04172517 -1.0625 5.5625 C-1.07410156 4.73878906 -1.08570313 3.91507812 -1.09765625 3.06640625 C-1 1 -1 1 0 0 Z " fill="#EABC9D" transform="translate(343,261)"/>
<path d="M0 0 C2.475 0.99 2.475 0.99 5 2 C1.55549263 4.29633824 -0.93812283 4.54016485 -5 5 C-4.67 4.01 -4.34 3.02 -4 2 C-2.68 2 -1.36 2 0 2 C0 1.34 0 0.68 0 0 Z " fill="#F1BC4D" transform="translate(316,475)"/>
<path d="M0 0 C0.66 0 1.32 0 2 0 C1.4409112 3.24271506 0.5867822 4.93057424 -2 7 C-2.66 7 -3.32 7 -4 7 C-4 6.01 -4 5.02 -4 4 C-3.34 4 -2.68 4 -2 4 C-2 3.34 -2 2.68 -2 2 C-1.34 2 -0.68 2 0 2 C0 1.34 0 0.68 0 0 Z " fill="#F5B739" transform="translate(406,425)"/>
<path d="M0 0 C1.45606519 4.52092968 0.27032841 7.51648796 -1 12 C-1.33 12 -1.66 12 -2 12 C-3.35384615 4.61538462 -3.35384615 4.61538462 -1.5625 1.5 C-1.046875 1.005 -0.53125 0.51 0 0 Z " fill="#F2C062" transform="translate(479,302)"/>
<path d="M0 0 C4.455 1.98 4.455 1.98 9 4 C7.02 4.99 7.02 4.99 5 6 C4.67 5.01 4.34 4.02 4 3 C2.68 3.33 1.36 3.66 0 4 C0 2.68 0 1.36 0 0 Z " fill="#F2BB48" transform="translate(360,47)"/>
<path d="M0 0 C0.66 0 1.32 0 2 0 C3.0326802 2.78823655 3.04509293 3.8677274 2.0625 6.75 C1.711875 7.4925 1.36125 8.235 1 9 C0.01 8.67 -0.98 8.34 -2 8 C-1.505 6.2984375 -1.505 6.2984375 -1 4.5625 C0.04504273 1.45623361 0.04504273 1.45623361 0 0 Z " fill="#DE9D20" transform="translate(407,401)"/>
<path d="M0 0 C0.95465783 2.16967689 1.14401212 3.56328793 0.3984375 5.82421875 C-0.35870385 7.5684743 -1.17609198 9.28627131 -2 11 C-2.66 11 -3.32 11 -4 11 C-3.71125 10.29875 -3.4225 9.5975 -3.125 8.875 C-1.97866412 5.94547497 -0.97374346 2.99078347 0 0 Z " fill="#F8C097" transform="translate(192,376)"/>
<path d="M0 0 C0.99 0 1.98 0 3 0 C3.33 1.65 3.66 3.3 4 5 C3.34 5 2.68 5 2 5 C1.67 5.99 1.34 6.98 1 8 C0.67 5.36 0.34 2.72 0 0 Z " fill="#F6B63F" transform="translate(29,326)"/>
<path d="M0 0 C1.32 0 2.64 0 4 0 C4 0.66 4 1.32 4 2 C3.34 2 2.68 2 2 2 C2.33 4.31 2.66 6.62 3 9 C0.87491756 5.81237635 0.4979837 3.73487777 0 0 Z " fill="#F7C29B" transform="translate(162,266)"/>
<path d="M0 0 C1.37562854 1.28965176 2.70766393 2.62689293 4 4 C4 4.66 4 5.32 4 6 C2.35 5.67 0.7 5.34 -1 5 C-0.67 3.35 -0.34 1.7 0 0 Z " fill="#F5B63D" transform="translate(441,118)"/>
<path d="M0 0 C1.875 1.1875 1.875 1.1875 2.875 3.1875 C0.235 2.8575 -2.405 2.5275 -5.125 2.1875 C-5.125 1.5275 -5.125 0.8675 -5.125 0.1875 C-2.125 -0.8125 -2.125 -0.8125 0 0 Z " fill="#F9AC17" transform="translate(176.125,471.8125)"/>
<path d="M0 0 C0.99 0.33 1.98 0.66 3 1 C1.02 3.97 1.02 3.97 -1 7 C-1.66 6.67 -2.32 6.34 -3 6 C-1.125 1.125 -1.125 1.125 0 0 Z " fill="#F4B12D" transform="translate(321,308)"/>
<path d="M0 0 C0.66 0 1.32 0 2 0 C2 2.64 2 5.28 2 8 C0.68 6.35 -0.64 4.7 -2 3 C-1.34 2.67 -0.68 2.34 0 2 C0 1.34 0 0.68 0 0 Z " fill="#F5C6A9" transform="translate(173,285)"/>
<path d="M0 0 C0.66 0.66 1.32 1.32 2 2 C-0.31 4.31 -2.62 6.62 -5 9 C-5.66 8.67 -6.32 8.34 -7 8 C-4.69 5.36 -2.38 2.72 0 0 Z " fill="#D5AB95" transform="translate(269,157)"/>
<path d="M0 0 C2.97 0 5.94 0 9 0 C9 0.66 9 1.32 9 2 C9.66 2.33 10.32 2.66 11 3 C9.741875 2.87625 8.48375 2.7525 7.1875 2.625 C6.12595703 2.52058594 6.12595703 2.52058594 5.04296875 2.4140625 C3 2 3 2 0 0 Z " fill="#EDC462" transform="translate(184,478)"/>
<path d="M0 0 C0.33 1.32 0.66 2.64 1 4 C0.34 4 -0.32 4 -1 4 C-1 4.66 -1 5.32 -1 6 C-2.32 5.67 -3.64 5.34 -5 5 C-3.35 3.35 -1.7 1.7 0 0 Z " fill="#D89A24" transform="translate(394,422)"/>
<path d="M0 0 C0.99 1.32 1.98 2.64 3 4 C2.01 4.66 1.02 5.32 0 6 C-0.99 5.34 -1.98 4.68 -3 4 C-2.01 2.68 -1.02 1.36 0 0 Z " fill="#D8AE92" transform="translate(185,390)"/>
<path d="M0 0 C0.33 0.66 0.66 1.32 1 2 C-0.65 3.98 -2.3 5.96 -4 8 C-4.66 7.67 -5.32 7.34 -6 7 C-4.02 4.69 -2.04 2.38 0 0 Z " fill="#F5B133" transform="translate(317,314)"/>
</svg>
